<mxfile host="app.diagrams.net" agent="Mozilla/5.0 (Windows NT 10.0; Win64; x64) AppleWebKit/537.36 (KHTML, like Gecko) Chrome/135.0.0.0 Safari/537.36 Edg/135.0.0.0" version="26.2.13">
  <diagram name="Page-1" id="t8PvOND944dqul4i6CPB">
    <mxGraphModel dx="823" dy="433" grid="1" gridSize="10" guides="1" tooltips="1" connect="1" arrows="1" fold="1" page="1" pageScale="1" pageWidth="850" pageHeight="1100" math="0" shadow="0">
      <root>
        <mxCell id="0" />
        <mxCell id="1" parent="0" />
        <mxCell id="dL_HrJLzAOHMBgIEjAsB-1" value="utilizador" style="rounded=0;whiteSpace=wrap;html=1;" vertex="1" parent="1">
          <mxGeometry x="120" y="120" width="80" height="40" as="geometry" />
        </mxCell>
        <mxCell id="dL_HrJLzAOHMBgIEjAsB-3" value="auditoria" style="rounded=0;whiteSpace=wrap;html=1;" vertex="1" parent="1">
          <mxGeometry x="250" y="180" width="80" height="40" as="geometry" />
        </mxCell>
        <mxCell id="dL_HrJLzAOHMBgIEjAsB-4" value="bilhete" style="rounded=0;whiteSpace=wrap;html=1;" vertex="1" parent="1">
          <mxGeometry x="120" y="240" width="80" height="40" as="geometry" />
        </mxCell>
        <mxCell id="dL_HrJLzAOHMBgIEjAsB-5" value="viagem" style="rounded=0;whiteSpace=wrap;html=1;" vertex="1" parent="1">
          <mxGeometry x="120" y="360" width="80" height="40" as="geometry" />
        </mxCell>
        <mxCell id="dL_HrJLzAOHMBgIEjAsB-6" value="rota" style="rounded=0;whiteSpace=wrap;html=1;" vertex="1" parent="1">
          <mxGeometry x="280" y="360" width="80" height="40" as="geometry" />
        </mxCell>
        <mxCell id="dL_HrJLzAOHMBgIEjAsB-7" value="paragem" style="rounded=0;whiteSpace=wrap;html=1;" vertex="1" parent="1">
          <mxGeometry x="440" y="360" width="80" height="40" as="geometry" />
        </mxCell>
        <mxCell id="dL_HrJLzAOHMBgIEjAsB-8" value="promocao" style="rounded=0;whiteSpace=wrap;html=1;" vertex="1" parent="1">
          <mxGeometry x="280" y="240" width="80" height="40" as="geometry" />
        </mxCell>
        <mxCell id="dL_HrJLzAOHMBgIEjAsB-9" value="cateira" style="rounded=0;whiteSpace=wrap;html=1;" vertex="1" parent="1">
          <mxGeometry x="280" y="120" width="80" height="40" as="geometry" />
        </mxCell>
        <mxCell id="dL_HrJLzAOHMBgIEjAsB-10" value="" style="rhombus;whiteSpace=wrap;html=1;" vertex="1" parent="1">
          <mxGeometry x="230" y="130" width="20" height="20" as="geometry" />
        </mxCell>
        <mxCell id="dL_HrJLzAOHMBgIEjAsB-12" value="" style="rhombus;whiteSpace=wrap;html=1;" vertex="1" parent="1">
          <mxGeometry x="230" y="370" width="20" height="20" as="geometry" />
        </mxCell>
        <mxCell id="dL_HrJLzAOHMBgIEjAsB-13" value="" style="rhombus;whiteSpace=wrap;html=1;" vertex="1" parent="1">
          <mxGeometry x="150" y="310" width="20" height="20" as="geometry" />
        </mxCell>
        <mxCell id="dL_HrJLzAOHMBgIEjAsB-14" value="" style="rhombus;whiteSpace=wrap;html=1;" vertex="1" parent="1">
          <mxGeometry x="150" y="190" width="20" height="20" as="geometry" />
        </mxCell>
        <mxCell id="dL_HrJLzAOHMBgIEjAsB-15" value="" style="rhombus;whiteSpace=wrap;html=1;" vertex="1" parent="1">
          <mxGeometry x="230" y="250" width="20" height="20" as="geometry" />
        </mxCell>
        <mxCell id="dL_HrJLzAOHMBgIEjAsB-16" value="" style="endArrow=none;html=1;rounded=0;entryX=0;entryY=1;entryDx=0;entryDy=0;" edge="1" parent="1" target="dL_HrJLzAOHMBgIEjAsB-10">
          <mxGeometry width="50" height="50" relative="1" as="geometry">
            <mxPoint x="200" y="145" as="sourcePoint" />
            <mxPoint x="230" y="160" as="targetPoint" />
          </mxGeometry>
        </mxCell>
        <mxCell id="dL_HrJLzAOHMBgIEjAsB-17" value="" style="endArrow=none;html=1;rounded=0;entryX=0;entryY=0;entryDx=0;entryDy=0;exitX=0.995;exitY=0.383;exitDx=0;exitDy=0;exitPerimeter=0;" edge="1" parent="1" source="dL_HrJLzAOHMBgIEjAsB-1" target="dL_HrJLzAOHMBgIEjAsB-10">
          <mxGeometry width="50" height="50" relative="1" as="geometry">
            <mxPoint x="213" y="120" as="sourcePoint" />
            <mxPoint x="270" y="119" as="targetPoint" />
          </mxGeometry>
        </mxCell>
        <mxCell id="dL_HrJLzAOHMBgIEjAsB-18" value="" style="endArrow=none;html=1;rounded=0;entryX=-0.002;entryY=0.636;entryDx=0;entryDy=0;exitX=1;exitY=1;exitDx=0;exitDy=0;entryPerimeter=0;" edge="1" parent="1" source="dL_HrJLzAOHMBgIEjAsB-10" target="dL_HrJLzAOHMBgIEjAsB-9">
          <mxGeometry width="50" height="50" relative="1" as="geometry">
            <mxPoint x="265" y="170" as="sourcePoint" />
            <mxPoint x="320" y="170" as="targetPoint" />
          </mxGeometry>
        </mxCell>
        <mxCell id="dL_HrJLzAOHMBgIEjAsB-19" value="" style="endArrow=none;html=1;rounded=0;entryX=-0.002;entryY=0.369;entryDx=0;entryDy=0;exitX=1;exitY=0;exitDx=0;exitDy=0;entryPerimeter=0;" edge="1" parent="1" source="dL_HrJLzAOHMBgIEjAsB-10" target="dL_HrJLzAOHMBgIEjAsB-9">
          <mxGeometry width="50" height="50" relative="1" as="geometry">
            <mxPoint x="265" y="130" as="sourcePoint" />
            <mxPoint x="320" y="130" as="targetPoint" />
          </mxGeometry>
        </mxCell>
        <mxCell id="dL_HrJLzAOHMBgIEjAsB-20" value="1" style="text;html=1;align=center;verticalAlign=middle;whiteSpace=wrap;rounded=0;" vertex="1" parent="1">
          <mxGeometry x="200" y="110" width="30" height="30" as="geometry" />
        </mxCell>
        <mxCell id="dL_HrJLzAOHMBgIEjAsB-22" value="1" style="text;html=1;align=center;verticalAlign=middle;whiteSpace=wrap;rounded=0;" vertex="1" parent="1">
          <mxGeometry x="250" y="110" width="30" height="30" as="geometry" />
        </mxCell>
        <mxCell id="dL_HrJLzAOHMBgIEjAsB-24" value="" style="endArrow=none;html=1;rounded=0;entryX=0.566;entryY=0.999;entryDx=0;entryDy=0;exitX=1;exitY=0;exitDx=0;exitDy=0;entryPerimeter=0;" edge="1" parent="1" source="dL_HrJLzAOHMBgIEjAsB-14" target="dL_HrJLzAOHMBgIEjAsB-1">
          <mxGeometry width="50" height="50" relative="1" as="geometry">
            <mxPoint x="180" y="190" as="sourcePoint" />
            <mxPoint x="215" y="190" as="targetPoint" />
          </mxGeometry>
        </mxCell>
        <mxCell id="dL_HrJLzAOHMBgIEjAsB-25" value="" style="endArrow=none;html=1;rounded=0;exitX=0;exitY=0;exitDx=0;exitDy=0;entryX=0.443;entryY=0.995;entryDx=0;entryDy=0;entryPerimeter=0;" edge="1" parent="1" source="dL_HrJLzAOHMBgIEjAsB-14" target="dL_HrJLzAOHMBgIEjAsB-1">
          <mxGeometry width="50" height="50" relative="1" as="geometry">
            <mxPoint x="140" y="200" as="sourcePoint" />
            <mxPoint x="155" y="180" as="targetPoint" />
          </mxGeometry>
        </mxCell>
        <mxCell id="dL_HrJLzAOHMBgIEjAsB-26" value="" style="endArrow=none;html=1;rounded=0;entryX=1;entryY=1;entryDx=0;entryDy=0;exitX=0.558;exitY=-0.009;exitDx=0;exitDy=0;exitPerimeter=0;" edge="1" parent="1" source="dL_HrJLzAOHMBgIEjAsB-4" target="dL_HrJLzAOHMBgIEjAsB-14">
          <mxGeometry width="50" height="50" relative="1" as="geometry">
            <mxPoint x="190" y="235" as="sourcePoint" />
            <mxPoint x="190" y="200" as="targetPoint" />
          </mxGeometry>
        </mxCell>
        <mxCell id="dL_HrJLzAOHMBgIEjAsB-27" value="" style="endArrow=none;html=1;rounded=0;entryX=0;entryY=1;entryDx=0;entryDy=0;exitX=0.431;exitY=-0.009;exitDx=0;exitDy=0;exitPerimeter=0;" edge="1" parent="1" source="dL_HrJLzAOHMBgIEjAsB-4" target="dL_HrJLzAOHMBgIEjAsB-14">
          <mxGeometry width="50" height="50" relative="1" as="geometry">
            <mxPoint x="140" y="237.5" as="sourcePoint" />
            <mxPoint x="140" y="202.5" as="targetPoint" />
          </mxGeometry>
        </mxCell>
        <mxCell id="dL_HrJLzAOHMBgIEjAsB-28" value="1" style="text;html=1;align=center;verticalAlign=middle;whiteSpace=wrap;rounded=0;" vertex="1" parent="1">
          <mxGeometry x="120" y="160" width="30" height="30" as="geometry" />
        </mxCell>
        <mxCell id="dL_HrJLzAOHMBgIEjAsB-29" value="N" style="text;html=1;align=center;verticalAlign=middle;whiteSpace=wrap;rounded=0;" vertex="1" parent="1">
          <mxGeometry x="120" y="210" width="30" height="30" as="geometry" />
        </mxCell>
        <mxCell id="dL_HrJLzAOHMBgIEjAsB-30" value="" style="endArrow=none;html=1;rounded=0;entryX=0;entryY=0;entryDx=0;entryDy=0;exitX=0.432;exitY=1.015;exitDx=0;exitDy=0;exitPerimeter=0;" edge="1" parent="1" source="dL_HrJLzAOHMBgIEjAsB-4" target="dL_HrJLzAOHMBgIEjAsB-13">
          <mxGeometry width="50" height="50" relative="1" as="geometry">
            <mxPoint x="80" y="350" as="sourcePoint" />
            <mxPoint x="130" y="300" as="targetPoint" />
          </mxGeometry>
        </mxCell>
        <mxCell id="dL_HrJLzAOHMBgIEjAsB-31" value="" style="endArrow=none;html=1;rounded=0;entryX=1;entryY=0;entryDx=0;entryDy=0;exitX=0.569;exitY=1.005;exitDx=0;exitDy=0;exitPerimeter=0;" edge="1" parent="1" source="dL_HrJLzAOHMBgIEjAsB-4" target="dL_HrJLzAOHMBgIEjAsB-13">
          <mxGeometry width="50" height="50" relative="1" as="geometry">
            <mxPoint x="190" y="286" as="sourcePoint" />
            <mxPoint x="190" y="320" as="targetPoint" />
          </mxGeometry>
        </mxCell>
        <mxCell id="dL_HrJLzAOHMBgIEjAsB-33" value="" style="endArrow=none;html=1;rounded=0;entryX=0.5;entryY=0;entryDx=0;entryDy=0;exitX=0.5;exitY=1;exitDx=0;exitDy=0;" edge="1" parent="1" source="dL_HrJLzAOHMBgIEjAsB-13" target="dL_HrJLzAOHMBgIEjAsB-5">
          <mxGeometry width="50" height="50" relative="1" as="geometry">
            <mxPoint x="134.88" y="320" as="sourcePoint" />
            <mxPoint x="134.88" y="356" as="targetPoint" />
          </mxGeometry>
        </mxCell>
        <mxCell id="dL_HrJLzAOHMBgIEjAsB-34" value="N" style="text;html=1;align=center;verticalAlign=middle;whiteSpace=wrap;rounded=0;" vertex="1" parent="1">
          <mxGeometry x="120" y="280" width="30" height="30" as="geometry" />
        </mxCell>
        <mxCell id="dL_HrJLzAOHMBgIEjAsB-35" value="1" style="text;html=1;align=center;verticalAlign=middle;whiteSpace=wrap;rounded=0;" vertex="1" parent="1">
          <mxGeometry x="120" y="330" width="30" height="30" as="geometry" />
        </mxCell>
        <mxCell id="dL_HrJLzAOHMBgIEjAsB-36" value="" style="endArrow=none;html=1;rounded=0;entryX=0;entryY=0.5;entryDx=0;entryDy=0;exitX=1;exitY=0.5;exitDx=0;exitDy=0;" edge="1" parent="1" source="dL_HrJLzAOHMBgIEjAsB-4" target="dL_HrJLzAOHMBgIEjAsB-15">
          <mxGeometry width="50" height="50" relative="1" as="geometry">
            <mxPoint x="190" y="340" as="sourcePoint" />
            <mxPoint x="240" y="290" as="targetPoint" />
          </mxGeometry>
        </mxCell>
        <mxCell id="dL_HrJLzAOHMBgIEjAsB-37" value="" style="endArrow=none;html=1;rounded=0;entryX=0;entryY=0.5;entryDx=0;entryDy=0;exitX=1;exitY=0.5;exitDx=0;exitDy=0;" edge="1" parent="1" source="dL_HrJLzAOHMBgIEjAsB-15" target="dL_HrJLzAOHMBgIEjAsB-8">
          <mxGeometry width="50" height="50" relative="1" as="geometry">
            <mxPoint x="210" y="270" as="sourcePoint" />
            <mxPoint x="240" y="270" as="targetPoint" />
          </mxGeometry>
        </mxCell>
        <mxCell id="dL_HrJLzAOHMBgIEjAsB-38" value="N" style="text;html=1;align=center;verticalAlign=middle;whiteSpace=wrap;rounded=0;" vertex="1" parent="1">
          <mxGeometry x="200" y="230" width="30" height="30" as="geometry" />
        </mxCell>
        <mxCell id="dL_HrJLzAOHMBgIEjAsB-39" value="M" style="text;html=1;align=center;verticalAlign=middle;whiteSpace=wrap;rounded=0;" vertex="1" parent="1">
          <mxGeometry x="250" y="230" width="30" height="30" as="geometry" />
        </mxCell>
        <mxCell id="dL_HrJLzAOHMBgIEjAsB-40" value="" style="rhombus;whiteSpace=wrap;html=1;" vertex="1" parent="1">
          <mxGeometry x="390" y="370" width="20" height="20" as="geometry" />
        </mxCell>
        <mxCell id="dL_HrJLzAOHMBgIEjAsB-41" value="" style="rhombus;whiteSpace=wrap;html=1;" vertex="1" parent="1">
          <mxGeometry x="205" y="190" width="20" height="20" as="geometry" />
        </mxCell>
        <mxCell id="dL_HrJLzAOHMBgIEjAsB-42" value="" style="rhombus;whiteSpace=wrap;html=1;" vertex="1" parent="1">
          <mxGeometry x="390" y="130" width="20" height="20" as="geometry" />
        </mxCell>
        <mxCell id="dL_HrJLzAOHMBgIEjAsB-45" value="" style="endArrow=none;html=1;rounded=0;entryX=0;entryY=1;entryDx=0;entryDy=0;exitX=1.001;exitY=0.632;exitDx=0;exitDy=0;exitPerimeter=0;" edge="1" parent="1" source="dL_HrJLzAOHMBgIEjAsB-5" target="dL_HrJLzAOHMBgIEjAsB-12">
          <mxGeometry width="50" height="50" relative="1" as="geometry">
            <mxPoint x="160" y="460" as="sourcePoint" />
            <mxPoint x="210" y="410" as="targetPoint" />
          </mxGeometry>
        </mxCell>
        <mxCell id="dL_HrJLzAOHMBgIEjAsB-46" value="" style="endArrow=none;html=1;rounded=0;entryX=0;entryY=0;entryDx=0;entryDy=0;exitX=0.999;exitY=0.376;exitDx=0;exitDy=0;exitPerimeter=0;" edge="1" parent="1" source="dL_HrJLzAOHMBgIEjAsB-5" target="dL_HrJLzAOHMBgIEjAsB-12">
          <mxGeometry width="50" height="50" relative="1" as="geometry">
            <mxPoint x="200" y="370" as="sourcePoint" />
            <mxPoint x="235" y="369" as="targetPoint" />
          </mxGeometry>
        </mxCell>
        <mxCell id="dL_HrJLzAOHMBgIEjAsB-47" value="" style="endArrow=none;html=1;rounded=0;entryX=0;entryY=0.5;entryDx=0;entryDy=0;exitX=1;exitY=0.5;exitDx=0;exitDy=0;" edge="1" parent="1" source="dL_HrJLzAOHMBgIEjAsB-12" target="dL_HrJLzAOHMBgIEjAsB-6">
          <mxGeometry width="50" height="50" relative="1" as="geometry">
            <mxPoint x="210" y="395" as="sourcePoint" />
            <mxPoint x="245" y="395" as="targetPoint" />
          </mxGeometry>
        </mxCell>
        <mxCell id="dL_HrJLzAOHMBgIEjAsB-48" value="" style="endArrow=none;html=1;rounded=0;exitX=1;exitY=0.5;exitDx=0;exitDy=0;entryX=0;entryY=0.5;entryDx=0;entryDy=0;" edge="1" parent="1" source="dL_HrJLzAOHMBgIEjAsB-6" target="dL_HrJLzAOHMBgIEjAsB-40">
          <mxGeometry width="50" height="50" relative="1" as="geometry">
            <mxPoint x="340" y="460" as="sourcePoint" />
            <mxPoint x="380" y="400" as="targetPoint" />
          </mxGeometry>
        </mxCell>
        <mxCell id="dL_HrJLzAOHMBgIEjAsB-49" value="1" style="text;html=1;align=center;verticalAlign=middle;whiteSpace=wrap;rounded=0;" vertex="1" parent="1">
          <mxGeometry x="360" y="350" width="30" height="30" as="geometry" />
        </mxCell>
        <mxCell id="dL_HrJLzAOHMBgIEjAsB-50" value="N" style="text;html=1;align=center;verticalAlign=middle;whiteSpace=wrap;rounded=0;" vertex="1" parent="1">
          <mxGeometry x="410" y="345" width="30" height="30" as="geometry" />
        </mxCell>
        <mxCell id="dL_HrJLzAOHMBgIEjAsB-51" value="" style="endArrow=none;html=1;rounded=0;exitX=1;exitY=0;exitDx=0;exitDy=0;entryX=0;entryY=0.379;entryDx=0;entryDy=0;entryPerimeter=0;" edge="1" parent="1" source="dL_HrJLzAOHMBgIEjAsB-40" target="dL_HrJLzAOHMBgIEjAsB-7">
          <mxGeometry width="50" height="50" relative="1" as="geometry">
            <mxPoint x="370" y="390" as="sourcePoint" />
            <mxPoint x="400" y="390" as="targetPoint" />
          </mxGeometry>
        </mxCell>
        <mxCell id="dL_HrJLzAOHMBgIEjAsB-52" value="" style="endArrow=none;html=1;rounded=0;exitX=1;exitY=1;exitDx=0;exitDy=0;" edge="1" parent="1" source="dL_HrJLzAOHMBgIEjAsB-40">
          <mxGeometry width="50" height="50" relative="1" as="geometry">
            <mxPoint x="415" y="385" as="sourcePoint" />
            <mxPoint x="440" y="385" as="targetPoint" />
          </mxGeometry>
        </mxCell>
        <mxCell id="dL_HrJLzAOHMBgIEjAsB-58" value="" style="endArrow=none;html=1;rounded=0;exitX=0.135;exitY=0.383;exitDx=0;exitDy=0;exitPerimeter=0;" edge="1" parent="1" source="dL_HrJLzAOHMBgIEjAsB-41">
          <mxGeometry width="50" height="50" relative="1" as="geometry">
            <mxPoint x="180" y="190" as="sourcePoint" />
            <mxPoint x="180" y="160" as="targetPoint" />
          </mxGeometry>
        </mxCell>
        <mxCell id="dL_HrJLzAOHMBgIEjAsB-59" value="" style="endArrow=none;html=1;rounded=0;exitX=0.349;exitY=0.142;exitDx=0;exitDy=0;exitPerimeter=0;entryX=0.863;entryY=1.009;entryDx=0;entryDy=0;entryPerimeter=0;" edge="1" parent="1" source="dL_HrJLzAOHMBgIEjAsB-41" target="dL_HrJLzAOHMBgIEjAsB-1">
          <mxGeometry width="50" height="50" relative="1" as="geometry">
            <mxPoint x="218" y="208" as="sourcePoint" />
            <mxPoint x="190" y="170" as="targetPoint" />
          </mxGeometry>
        </mxCell>
        <mxCell id="dL_HrJLzAOHMBgIEjAsB-60" value="" style="endArrow=none;html=1;rounded=0;exitX=0.003;exitY=0.371;exitDx=0;exitDy=0;entryX=1;entryY=0;entryDx=0;entryDy=0;exitPerimeter=0;" edge="1" parent="1" source="dL_HrJLzAOHMBgIEjAsB-3" target="dL_HrJLzAOHMBgIEjAsB-41">
          <mxGeometry width="50" height="50" relative="1" as="geometry">
            <mxPoint x="230" y="191.5" as="sourcePoint" />
            <mxPoint x="207" y="158.5" as="targetPoint" />
          </mxGeometry>
        </mxCell>
        <mxCell id="dL_HrJLzAOHMBgIEjAsB-61" value="" style="endArrow=none;html=1;rounded=0;exitX=0.001;exitY=0.624;exitDx=0;exitDy=0;entryX=1;entryY=1;entryDx=0;entryDy=0;exitPerimeter=0;" edge="1" parent="1" source="dL_HrJLzAOHMBgIEjAsB-3" target="dL_HrJLzAOHMBgIEjAsB-41">
          <mxGeometry width="50" height="50" relative="1" as="geometry">
            <mxPoint x="260" y="205" as="sourcePoint" />
            <mxPoint x="230" y="205" as="targetPoint" />
          </mxGeometry>
        </mxCell>
        <mxCell id="dL_HrJLzAOHMBgIEjAsB-62" value="1" style="text;html=1;align=center;verticalAlign=middle;whiteSpace=wrap;rounded=0;" vertex="1" parent="1">
          <mxGeometry x="190" y="160" width="30" height="30" as="geometry" />
        </mxCell>
        <mxCell id="dL_HrJLzAOHMBgIEjAsB-63" value="N" style="text;html=1;align=center;verticalAlign=middle;whiteSpace=wrap;rounded=0;" vertex="1" parent="1">
          <mxGeometry x="220" y="170" width="30" height="30" as="geometry" />
        </mxCell>
        <mxCell id="dL_HrJLzAOHMBgIEjAsB-64" value="transacao" style="rounded=0;whiteSpace=wrap;html=1;" vertex="1" parent="1">
          <mxGeometry x="440" y="120" width="80" height="40" as="geometry" />
        </mxCell>
        <mxCell id="dL_HrJLzAOHMBgIEjAsB-66" value="" style="endArrow=none;html=1;rounded=0;entryX=0;entryY=1;entryDx=0;entryDy=0;" edge="1" parent="1" target="dL_HrJLzAOHMBgIEjAsB-42">
          <mxGeometry width="50" height="50" relative="1" as="geometry">
            <mxPoint x="360" y="145" as="sourcePoint" />
            <mxPoint x="420" y="170" as="targetPoint" />
          </mxGeometry>
        </mxCell>
        <mxCell id="dL_HrJLzAOHMBgIEjAsB-67" value="" style="endArrow=none;html=1;rounded=0;entryX=0;entryY=0;entryDx=0;entryDy=0;exitX=0.995;exitY=0.373;exitDx=0;exitDy=0;exitPerimeter=0;" edge="1" parent="1" source="dL_HrJLzAOHMBgIEjAsB-9" target="dL_HrJLzAOHMBgIEjAsB-42">
          <mxGeometry width="50" height="50" relative="1" as="geometry">
            <mxPoint x="370" y="124.94" as="sourcePoint" />
            <mxPoint x="405" y="124.94" as="targetPoint" />
          </mxGeometry>
        </mxCell>
        <mxCell id="dL_HrJLzAOHMBgIEjAsB-68" value="" style="endArrow=none;html=1;rounded=0;entryX=0;entryY=0.616;entryDx=0;entryDy=0;fontStyle=1;entryPerimeter=0;exitX=1;exitY=1;exitDx=0;exitDy=0;" edge="1" parent="1" source="dL_HrJLzAOHMBgIEjAsB-42" target="dL_HrJLzAOHMBgIEjAsB-64">
          <mxGeometry width="50" height="50" relative="1" as="geometry">
            <mxPoint x="382.5" y="159.74" as="sourcePoint" />
            <mxPoint x="417.5" y="159.74" as="targetPoint" />
          </mxGeometry>
        </mxCell>
        <mxCell id="dL_HrJLzAOHMBgIEjAsB-69" value="" style="endArrow=none;html=1;rounded=0;entryX=0.005;entryY=0.374;entryDx=0;entryDy=0;fontStyle=1;entryPerimeter=0;exitX=1;exitY=0;exitDx=0;exitDy=0;" edge="1" parent="1" source="dL_HrJLzAOHMBgIEjAsB-42" target="dL_HrJLzAOHMBgIEjAsB-64">
          <mxGeometry width="50" height="50" relative="1" as="geometry">
            <mxPoint x="390" y="159.85" as="sourcePoint" />
            <mxPoint x="425" y="159.85" as="targetPoint" />
          </mxGeometry>
        </mxCell>
        <mxCell id="dL_HrJLzAOHMBgIEjAsB-70" value="1" style="text;html=1;align=center;verticalAlign=middle;whiteSpace=wrap;rounded=0;" vertex="1" parent="1">
          <mxGeometry x="360" y="110" width="30" height="30" as="geometry" />
        </mxCell>
        <mxCell id="dL_HrJLzAOHMBgIEjAsB-71" value="N" style="text;html=1;align=center;verticalAlign=middle;whiteSpace=wrap;rounded=0;" vertex="1" parent="1">
          <mxGeometry x="410" y="110" width="30" height="30" as="geometry" />
        </mxCell>
        <mxCell id="dL_HrJLzAOHMBgIEjAsB-72" value="N" style="text;html=1;align=center;verticalAlign=middle;whiteSpace=wrap;rounded=0;" vertex="1" parent="1">
          <mxGeometry x="200" y="345" width="30" height="30" as="geometry" />
        </mxCell>
        <mxCell id="dL_HrJLzAOHMBgIEjAsB-73" value="1" style="text;html=1;align=center;verticalAlign=middle;whiteSpace=wrap;rounded=0;" vertex="1" parent="1">
          <mxGeometry x="250" y="345" width="30" height="30" as="geometry" />
        </mxCell>
      </root>
    </mxGraphModel>
  </diagram>
</mxfile>
